Complete name                    : Angels.in.America 2003.EP1-3.avi
Format                           : AVI
File size                        : 2.06 GiB
Duration                         : 2h 40mn
Overall bit rate                 : 1 841 Kbps

Video

Format                           : MPEG-4 Visual
Codec ID/Hint                    : XviD
Duration                         : 2h 40mn
Bit rate                         : 1 446 Kbps
Width                            : 720 pixels
Height                           : 576 pixels
Display aspect ratio             : 16:9
Stream size                      : 1.62 GiB (79%)
Writing library                  : XviD 1.1.2 (UTC 2006-11-01)

Audio

Format                           : AC-3
Duration                         : 2h 40mn
Bit rate                         : 384 Kbps
Channel(s)                       : 6 channels
Channel positions                : Front: L C R, Side: L R, LFE
Sampling rate                    : 48.0 KHz
Bit depth                        : 16 bits
Stream size                      : 440 MiB (21%)


Subtitles: 

English, Danish, Dutch, Finnish, Norwegian, Polish, Greek, 

Icelandic, Swedish, Hebrew, Portugues



**************** Menu ***********************

00:00:00.000.....................: Episode  1

00:59:14.680.....................: Episode  2

01:45:37.840.....................: Episode  3


######################################################################


Complete name                    : Angels.in.America 2003.EP 4-6.avi
Format                           : AVI
File size                        : 2.16 GiB
Duration                         : 2h 57mn
Overall bit rate                 : 1 741 Kbps

Video

Format                           : MPEG-4 Visual
Codec ID/Hint                    : XviD
Duration                         : 2h 57mn
Bit rate                         : 1 346 Kbps
Width                            : 720 pixels
Height                           : 576 pixels
Display aspect ratio             : 16:9
Stream size                      : 1.67 GiB (77%)
Writing library                  : XviD 1.1.2 (UTC 2006-11-01)

Audio

Format                           : AC-3
Duration                         : 2h 57mn
Bit rate                         : 384 Kbps
Channel(s)                       : 6 channels
Channel positions                : Front: L C R, Side: L R, LFE
Sampling rate                    : 48.0 KHz
Bit depth                        : 16 bits
Stream size                      : 487 MiB (22%)


Subtitles: 

English, Danish, Dutch, Finnish, Norwegian, Polish, Greek, 

Icelandic, Swedish, Hebrew, Portugues



**************** Menu ***********************

00:00:00.000                     : Episode  4

00:51:05.280                     : Episode  5

01:45:33.880                     : Episode  6

 
http://en.wikipedia.org/wiki/Angels_in_America_%28TV_miniseries%29